<?xml version="1.0" standalone="no"?>
<!DOCTYPE svg PUBLIC "-//W3C//DTD SVG 20010904//EN"
 "http://www.w3.org/TR/2001/REC-SVG-20010904/DTD/svg10.dtd">
<svg version="1.0" xmlns="http://www.w3.org/2000/svg"
 width="512.000000pt" height="512.000000pt" viewBox="0 0 512.000000 512.000000"
 preserveAspectRatio="xMidYMid meet">

<g transform="translate(0.000000,512.000000) scale(0.100000,-0.100000)"
fill="#000000" stroke="none">
<path d="M2323 5110 c-593 -58 -1154 -323 -1573 -743 -403 -403 -648 -904
-732 -1492 -20 -140 -17 -504 6 -660 39 -278 121 -541 247 -794 249 -503 646
-900 1150 -1150 815 -406 1779 -350 2539 147 297 194 579 482 771 788 74 116
184 342 234 478 51 138 110 376 131 531 23 157 26 521 6 660 -59 415 -191 769
-410 1099 -92 140 -185 254 -315 385 -399 403 -895 653 -1462 737 -122 18
-466 26 -592 14z m478 -130 c163 -17 381 -65 539 -119 370 -126 655 -304 936
-585 286 -287 464 -574 591 -954 250 -749 115 -1577 -363 -2222 -100 -135
-349 -384 -484 -484 -799 -592 -1858 -648 -2708 -142 -172 103 -303 206 -468
371 -165 164 -268 295 -377 480 -314 529 -415 1178 -276 1780 223 968 1027
1712 2009 1859 58 9 123 17 145 19 94 8 361 6 456 -3z"/>
<path d="M1765 3526 c-16 -8 -121 -106 -232 -218 -200 -201 -203 -205 -203
-247 0 -34 6 -49 29 -72 l30 -29 985 2 986 3 216 216 c215 215 217 217 217
260 0 35 -6 48 -32 71 l-31 28 -968 0 c-790 -1 -972 -3 -997 -14z m1695 -281
l-165 -165 -897 0 c-494 0 -898 3 -898 7 0 4 71 79 157 165 l158 158 905 0
905 0 -165 -165z"/>
<path d="M1394 2850 c-55 -22 -79 -93 -50 -148 24 -45 389 -400 429 -417 32
-13 161 -15 987 -15 1057 0 997 -4 1026 67 26 61 11 82 -214 305 -164 162
-214 206 -241 212 -50 9 -1913 6 -1937 -4z m2076 -285 l165 -165 -905 0 -905
1 -168 164 -167 165 907 0 908 0 165 -165z"/>
<path d="M1755 2141 c-16 -10 -119 -109 -229 -219 -196 -198 -199 -200 -199
-243 0 -35 6 -48 32 -71 l31 -28 971 0 c689 0 977 3 992 11 42 21 436 422 442
449 7 33 -7 72 -36 99 l-23 21 -975 0 c-940 0 -977 -1 -1006 -19z m1715 -266
l-165 -165 -905 0 -905 0 165 165 165 165 905 0 905 0 -165 -165z"/>
</g>
</svg>
